<?xml version="1.0" encoding="UTF-8" standalone="no"?>
<svg
   xmlns:dc="http://purl.org/dc/elements/1.1/"
   xmlns:cc="http://creativecommons.org/ns#"
   xmlns:rdf="http://www.w3.org/1999/02/22-rdf-syntax-ns#"
   xmlns:svg="http://www.w3.org/2000/svg"
   xmlns="http://www.w3.org/2000/svg"
   xmlns:sodipodi="http://sodipodi.sourceforge.net/DTD/sodipodi-0.dtd"
   xmlns:inkscape="http://www.inkscape.org/namespaces/inkscape"
   sodipodi:docname="spiral.svg"
   inkscape:version="1.0 (4035a4fb49, 2020-05-01)"
   id="svg8"
   version="1.1"
   viewBox="0 0 32.570606 32.066006"
   height="32.066006mm"
   width="32.570606mm">
  <defs
     id="defs2" />
  <sodipodi:namedview
     inkscape:window-maximized="0"
     inkscape:window-y="28"
     inkscape:window-x="124"
     inkscape:window-height="1041"
     inkscape:window-width="1274"
     showgrid="false"
     inkscape:document-rotation="0"
     inkscape:current-layer="layer1"
     inkscape:document-units="mm"
     inkscape:cy="239.13451"
     inkscape:cx="173.78364"
     inkscape:zoom="0.98994949"
     inkscape:pageshadow="2"
     inkscape:pageopacity="0.0"
     borderopacity="1.0"
     bordercolor="#666666"
     pagecolor="#ffffff"
     id="base" />
  <metadata
     id="metadata5">
    <rdf:RDF>
      <cc:Work
         rdf:about="">
        <dc:format>image/svg+xml</dc:format>
        <dc:type
           rdf:resource="http://purl.org/dc/dcmitype/StillImage" />
        <dc:title></dc:title>
      </cc:Work>
    </rdf:RDF>
  </metadata>
  <g
     transform="translate(-0.18058198,-0.07378226)"
     id="layer1"
     inkscape:groupmode="layer"
     inkscape:label="Layer 1">
    <path
       transform="matrix(1.3089309,0,0,1.3956264,1.0353261,-0.0939332)"
       d="M 10.690782,12.561667 C 11.132997,13.057485 10.240603,13.402384 9.8667,13.296658 8.8534471,13.010149 8.763584,11.686192 9.2208004,10.913504 10.038653,9.5313472 11.960632,9.4737816 13.163026,10.356696 c 1.764562,1.295711 1.787323,3.884885 0.467718,5.501298 -1.758825,2.154423 -5.0355567,2.139667 -7.0603702,0.378627 C 4.0223525,14.020531 4.0758956,10.047704 6.2808379,7.6171781 8.9513185,4.6734856 13.624631,4.7664579 16.459353,7.4167332 19.799973,10.539991 19.667213,15.916349 16.570706,19.15432 12.995667,22.892685 6.9146359,22.719921 3.2740475,19.176583 -0.86262046,15.150417 -0.64971265,8.3636147 3.3408755,4.3208518 7.8177123,-0.21451727 15.311065,0.03862812 19.755679,4.4767707 24.690043,9.4039502 24.396594,17.604424 19.510669,22.450646"
       sodipodi:t0="0"
       sodipodi:argument="-18.007076"
       sodipodi:radius="13.250748"
       sodipodi:revolution="3"
       sodipodi:expansion="1"
       sodipodi:cy="12.561667"
       sodipodi:cx="10.690782"
       id="path833"
       style="fill:#37c837;fill-rule:evenodd;stroke:#217821;stroke-width:1.81861;stroke-miterlimit:4;stroke-dasharray:none"
       sodipodi:type="spiral" />
  </g>
</svg>
